<svg height="413pt" viewBox="-29 0 413 413.88054" width="413pt" xmlns="http://www.w3.org/2000/svg"><path d="m236.871094 5.125c-67.199219-2.652344-129.222656 33.054688-129.222656 124.597656-3.34375 27.085938-15.230469 82.914063-57.398438 117.921875-.03125.027344-.054688.054688-.082031.082031-27.042969 15.140626-43.816407 43.691407-43.878907 74.683594-.058593 30.992188 16.601563 59.605469 43.582032 74.851563 26.984375 15.246093 60.089844 14.753906 86.609375-1.285157 0 0 191.597656-85.363281 213.820312-252.921874 3.917969-29.585938 2.117188-133.359376-113.429687-137.929688zm0 0" fill="#74c7c5"/><path d="m288.738281 129.953125c0 35.257813-28.578125 63.839844-63.835937 63.839844-35.253906 0-63.835938-28.582031-63.835938-63.839844 0-35.253906 28.582032-63.835937 63.835938-63.835937 35.257812 0 63.835937 28.582031 63.835937 63.835937zm0 0" fill="#fff"/><g fill="#2f2754"><path d="m290.304688 272.496094c-62 73.398437-155.054688 118.53125-156 118.980468-.148438.070313-.292969.148438-.433594.234376-24.988282 15.519531-56.441406 16.230468-82.105469 1.859374-25.667969-14.371093-41.496094-41.558593-41.320313-70.976562.171876-29.414062 16.320313-56.414062 42.152344-70.484375.304688-.167969.589844-.367187.851563-.59375l.125-.117187c42.753906-35.597657 55.332031-91.09375 59.023437-121.039063.246094-1.785156-.492187-3.5625-1.925781-4.652344-1.433594-1.09375-3.34375-1.328125-4.996094-.617187-1.65625.710937-2.800781 2.253906-3 4.046875-3.511719 28.457031-15.386719 81.148437-55.417969 114.507812-28.824218 15.957031-46.742187 46.285157-46.816406 79.234375-.074218 32.949219 17.710938 63.355469 46.464844 79.441406 28.753906 16.089844 63.972656 15.335938 92.011719-1.964843 8.207031-4 98.066406-49.238281 159.011719-121.394531 1.164062-1.367188 1.507812-3.246094.902343-4.933594s-2.066406-2.921875-3.828125-3.234375c-1.765625-.3125-3.5625.339843-4.710937 1.714843zm0 0"/><path d="m328.050781 39.335938c-20.570312-24.441407-51.199219-37.628907-90.976562-39.199219-58.246094-2.324219-123.820313 25-133.269531 108.5-.277344 2.722656 1.6875 5.164062 4.410156 5.472656s5.1875-1.632813 5.523437-4.351563c7.378907-65.128906 53.378907-102.335937 122.941407-99.628906 36.863281 1.453125 65.03125 13.445313 83.71875 35.640625 31.703124 37.660157 25.730468 90.710938 24.941406 96.632813-5.558594 39.269531-20.214844 76.699218-42.800782 109.300781-1.546874 2.289063-.945312 5.398437 1.34375 6.945313 2.289063 1.546874 5.398438.941406 6.945313-1.34375 23.449219-33.882813 38.664063-72.777344 44.421875-113.578126.851562-6.375 7.269531-63.449218-27.199219-104.390624zm0 0"/><path d="m224.90625 61.125c-38.015625 0-68.835938 30.816406-68.835938 68.835938 0 38.015624 30.820313 68.835937 68.835938 68.835937 38.019531 0 68.835938-30.820313 68.835938-68.835937-.039063-38-30.835938-68.796876-68.835938-68.835938zm0 127.671875c-32.492188 0-58.835938-26.34375-58.835938-58.835937 0-32.496094 26.34375-58.835938 58.835938-58.835938 32.496094 0 58.835938 26.339844 58.835938 58.835938-.035157 32.476562-26.355469 58.796874-58.835938 58.835937zm0 0"/><path d="m249.484375 97.832031c-2.195313-1.601562-5.265625-1.160156-6.917969.996094s-1.28125 5.238281.835938 6.9375c7.558594 5.742187 11.984375 14.699219 11.953125 24.1875 0 2.761719 2.238281 5 5 5s5-2.238281 5-5c.039062-12.601563-5.835938-24.496094-15.871094-32.121094zm0 0"/><path d="m229.523438 89.769531c-1.53125-.171875-3.070313-.257812-4.613282-.257812-2.761718 0-5 2.238281-5 5s2.238282 5 5 5c1.167969 0 2.332032.0625 3.488282.195312.1875.019531.378906.03125.570312.03125 2.648438-.003906 4.835938-2.074219 4.980469-4.722656.148437-2.644531-1.792969-4.945313-4.425781-5.246094zm0 0"/></g><path d="m141.867188 356.03125c-25.421876 15.460938-58.125 11.515625-79.136719-9.550781-1.953125-1.953125-5.117188-1.953125-7.070313 0s-1.953125 5.117187 0 7.070312c24.191406 24.238281 61.800782 28.851563 91.132813 11.171875 17.261719-8.234375 33.847656-17.824218 49.597656-28.679687 2.140625-1.597657 2.648437-4.597657 1.148437-6.808594-1.496093-2.210937-4.46875-2.855469-6.746093-1.464844-15.34375 10.609375-31.519531 19.960938-48.367188 27.96875-.191406.085938-.378906.183594-.558593.292969zm0 0" fill="#fff"/><path d="m75.792969 325.710938c1.714843-.003907 3.3125-.886719 4.226562-2.339844.914063-1.453125 1.015625-3.273438.277344-4.824219-.050781-.09375-.5-1.054687-1.117187-2.679687-.980469-2.582032-3.871094-3.878907-6.453126-2.894532-2.582031.980469-3.878906 3.867188-2.894531 6.449219.84375 2.226563 1.46875 3.488281 1.46875 3.488281.839844 1.714844 2.582031 2.800782 4.492188 2.800782zm0 0" fill="#fff"/><path d="m123.828125 201.832031c-1.296875-.277343-2.652344-.027343-3.761719.695313-1.113281.722656-1.890625 1.859375-2.167968 3.15625-5.433594 20.59375-17.414063 38.863281-34.132813 52.054687-18.242187 13.839844-19.789063 32.886719-17.875 46.425781.347656 2.464844 2.457031 4.296876 4.945313 4.300782.234374 0 .472656-.015625.707031-.050782 2.734375-.386718 4.640625-2.914062 4.253906-5.652343-2.242187-15.835938 2.472656-28.300781 14-37.054688 18.679687-14.597656 31.996094-34.976562 37.867187-57.949219.574219-2.695312-1.144531-5.34375-3.835937-5.925781zm0 0" fill="#fff"/><path d="m314.753906 133.382812c1.296875.277344 2.652344.027344 3.765625-.695312s1.890625-1.863281 2.160157-3.160156c10.519531-49.679688-27.199219-80.429688-28.820313-81.710938-2.160156-1.726562-5.304687-1.375-7.03125.785156-1.722656 2.15625-1.371094 5.304688.789063 7.03125 1.414062 1.132813 34.492187 28.296876 25.277343 71.828126-.570312 2.699218 1.160157 5.351562 3.859375 5.921874zm0 0" fill="#fff"/></svg>